<?xml version="1.0" encoding="UTF-8" standalone="no"?>
<!-- Designed by Vexels.com - 2016 All Rights Reserved - https://vexels.com/terms-and-conditions/  -->

<svg
   version="1.1"
   id="Layer_1"
   x="0px"
   y="0px"
   width="2500"
   height="1200"
   viewBox="0 0 2500 1200"
   enable-background="new 0 0 1200 1200"
   xml:space="preserve"
   sodipodi:docname="kurzor.svg"
   inkscape:export-filename="kurzor.svg"
   inkscape:export-xdpi="96"
   inkscape:export-ydpi="96"
   xmlns:inkscape="http://www.inkscape.org/namespaces/inkscape"
   xmlns:sodipodi="http://sodipodi.sourceforge.net/DTD/sodipodi-0.dtd"
   xmlns="http://www.w3.org/2000/svg"
   xmlns:svg="http://www.w3.org/2000/svg"><defs
   id="defs20" /><sodipodi:namedview
   id="namedview20"
   pagecolor="#ffffff"
   bordercolor="#000000"
   borderopacity="0.25"
   inkscape:showpageshadow="2"
   inkscape:pageopacity="0.0"
   inkscape:pagecheckerboard="0"
   inkscape:deskcolor="#d1d1d1" />
<g
   id="g20"
   transform="translate(1431.9565,-4.1748006)">
	<path
   fill="#ffffff"
   d="m 466.946,1124.685 c 2.345,0 436.246,-5.468 436.246,-5.468 l 4.691,-97.728 27.359,-28.924 19.551,-125.874 33.61,-28.924 7.818,-318.194 -14.069,-14.86 -13.286,-9.377 -37.528,-39.878 -10.173,-10.159 -55.5,-28.927 -24.237,-3.128 -14.078,-9.382 -8.586,-8.605 -125.884,-36.741 -10.155,-3.905 -11.737,-9.386 -68.01,-25.8 -43.782,-5.473 -10.946,-205.611 -10.941,-7.037 -8.605,1.56 -10.95,-10.159 -83.651,-1.564 -4.691,3.905 -10.946,9.386 -39.873,447.187 -35.963,10.951 -14.069,-7.818 -15.631,-13.292 -109.456,-1.559 c 0,0 3.123,59.414 0.782,64.105 -2.35,4.691 10.946,39.087 10.946,39.087 l 13.291,12.509 37.527,30.495 12.51,19.541 c 0,0 32.055,68.802 31.272,71.933 -0.786,3.123 7.814,13.287 7.814,13.287 l 13.292,14.072 34.405,84.433 18.759,19.546 29.705,80.524 18.763,18.768 c 0,0 21.114,101.629 17.987,103.197 -3.127,1.564 16.419,13.287 16.419,13.287 z"
   id="path1" />
	<g
   id="g19">
		<rect
   x="375.05499"
   y="99.740997"
   width="48.645"
   height="650.74902"
   id="rect1" />
		<rect
   x="525.21301"
   y="100.523"
   width="50.202999"
   height="450.22198"
   id="rect2" />
		<rect
   x="674.58801"
   y="349.625"
   width="50.369999"
   height="201.119"
   id="rect3" />
		<rect
   x="824.69"
   y="400.444"
   width="50.369999"
   height="201.125"
   id="rect4" />
		<rect
   x="975.58301"
   y="498.95401"
   width="50.383999"
   height="351.22101"
   id="rect5" />
		<polygon
   points="678.446,349.82 823.325,349.625 823.376,399.07 678.539,399.264 "
   id="polygon5" />
		<polygon
   points="825.374,400.541 925.694,400.342 925.745,449.838 825.421,449.986 "
   id="polygon6" />
		<polygon
   points="532.929,299.782 674.782,299.593 674.834,349.82 533.031,350.014 "
   id="polygon7" />
		<rect
   x="424.995"
   y="50"
   width="100.066"
   height="49.25"
   id="rect7" />
		<rect
   x="926.12402"
   y="450.28201"
   width="48.473"
   height="49.255001"
   id="rect8" />
		<rect
   x="924.565"
   y="849.78302"
   width="50.032001"
   height="150.89799"
   id="rect9" />
		<rect
   x="374.177"
   y="900.60602"
   width="50.032001"
   height="100.074"
   id="rect10" />
		<rect
   x="324.13901"
   y="799.755"
   width="50.037998"
   height="100.066"
   id="rect11" />
		<rect
   x="274.10199"
   y="699.67999"
   width="50.036999"
   height="100.074"
   id="rect12" />
		<rect
   x="224.07001"
   y="648.867"
   width="50.033001"
   height="50.813"
   id="rect13" />
		<rect
   x="324.13901"
   y="550.35602"
   width="50.037998"
   height="50.819"
   id="rect14" />
		<rect
   x="174.033"
   y="500.319"
   width="50.036999"
   height="149.325"
   id="rect15" />
		<rect
   x="876.09198"
   y="1000.68"
   width="48.473"
   height="149.32001"
   id="rect16" />
		<rect
   x="425.78101"
   y="1000.68"
   width="48.465"
   height="149.32001"
   id="rect17" />
		<rect
   x="425.78101"
   y="1101.531"
   width="498.784"
   height="48.469002"
   id="rect18" />
		<rect
   x="196.701"
   y="499.53699"
   width="127.438"
   height="50.037998"
   id="rect19" />
	</g>
</g>
<text
   xml:space="preserve"
   style="font-size:305.514px;line-height:0.9;text-align:center;text-anchor:middle;fill:#000000;stroke-width:1.14568"
   x="802.2561"
   y="564.04871"
   id="text21"><tspan
     sodipodi:role="line"
     id="tspan21"
     x="802.2561"
     y="564.04871"
     style="font-style:normal;font-variant:normal;font-weight:800;font-stretch:normal;font-size:305.514px;line-height:0.9;font-family:Changa;-inkscape-font-specification:'Changa Ultra-Bold';text-align:center;text-anchor:middle;stroke-width:1.14568">DRAW </tspan><tspan
     sodipodi:role="line"
     x="802.2561"
     y="875.82037"
     style="font-style:normal;font-variant:normal;font-weight:800;font-stretch:normal;font-size:305.514px;line-height:0.9;font-family:Changa;-inkscape-font-specification:'Changa Ultra-Bold';text-align:center;text-anchor:middle;stroke-width:1.14568"
     id="tspan22">THIS WORD</tspan></text></svg>
